<svg xmlns="http://www.w3.org/2000/svg" width="34.33" height="35" viewBox="0 0 34.33 35"><path d="M34.33,35H0V0H34.33ZM17.67,32.79c3.74,0,7.47,0,11.21,0,1.37,0,2.09-.55,1.72-1.86a22.23,22.23,0,0,0-2.06-5.82c-3.06-4.81-7.89-5.79-13.16-5.24A12,12,0,0,0,4.64,30.83c-.09,1.41.33,2,1.81,2C10.19,32.75,13.93,32.79,17.67,32.79ZM25.2,10.17a7.56,7.56,0,0,0-7.59-7.69A7.68,7.68,0,0,0,10,10.06a7.62,7.62,0,0,0,7.56,7.58A7.52,7.52,0,0,0,25.2,10.17Z" style="fill:#fff"/><path d="M17.67,32.79c-3.74,0-7.48,0-11.22,0-1.48,0-1.9-.58-1.81-2A12,12,0,0,1,15.38,19.89c5.27-.55,10.1.43,13.16,5.24A22.23,22.23,0,0,1,30.6,31c.37,1.31-.35,1.88-1.72,1.86C25.14,32.76,21.41,32.79,17.67,32.79ZM7,30.58h21.3c-.7-5.78-5-8.83-12-8.54C11.3,22.24,7.17,26,7,30.58Z"/><path d="M25.2,10.17a7.52,7.52,0,0,1-7.62,7.47A7.62,7.62,0,0,1,10,10.06a7.68,7.68,0,0,1,7.59-7.58A7.56,7.56,0,0,1,25.2,10.17Zm-13-.09a5.41,5.41,0,0,0,5.45,5.41,5.48,5.48,0,0,0,5.39-5.34,5.42,5.42,0,1,0-10.84-.07Z"/><path d="M7,30.58C7.17,26,11.3,22.24,16.29,22c7-.29,11.33,2.76,12,8.54Z" style="fill:#fff"/><path d="M12.23,10.08a5.42,5.42,0,1,1,5.45,5.41A5.45,5.45,0,0,1,12.23,10.08Z" style="fill:#fff"/></svg>