<?xml version="1.0" encoding="UTF-8"?><svg id="a" xmlns="http://www.w3.org/2000/svg" width="26.07" height="30.38" viewBox="0 0 26.07 30.38"><path d="M13.04,30.31H1.82C.34,30.31-.08,29.73,.01,28.31c.5-5.74,5.01-10.32,10.74-10.9,5.27-.55,10.1,.43,13.16,5.24,.96,1.85,1.65,3.83,2.06,5.87,.37,1.31-.35,1.88-1.72,1.86-3.74-.1-7.47-.07-11.21-.07Zm-10.67-2.21H23.67c-.7-5.78-5-8.83-12-8.54-5,.2-9.13,3.96-9.3,8.54Z"/><path d="M20.57,7.69c-.03,4.15-3.42,7.5-7.57,7.47h-.05c-4.18-.02-7.56-3.4-7.58-7.58C5.43,3.41,8.79,.05,12.96,0c4.18-.03,7.58,3.33,7.61,7.51,0,.06,0,.12,0,.18Zm-13-.09c0,2.99,2.42,5.41,5.41,5.41h.04c2.94-.05,5.32-2.4,5.39-5.34,.02-2.99-2.39-5.44-5.39-5.45s-5.44,2.39-5.45,5.39Z"/></svg>