<?xml version="1.0" encoding="UTF-8"?><svg id="a" xmlns="http://www.w3.org/2000/svg" width="44.66" height="35" viewBox="0 0 44.66 35"><path d="M0,24.36c1.53-4.14,3.07-8.28,4.6-12.43,.74-2,.86-2.17,2.81-1.12,2.89,1.65,6.17,2.5,9.5,2.46,.86,.02,1.71-.19,2.46-.62,2.65-2,6.28-2.11,9.05-.27,1.9,1.12,3.72,.68,5.51-.15,.84-.43,1.63-.94,2.38-1.52,1-.71,1.61-.68,2.19,.52,1.91,3.88,3.87,7.73,5.85,11.57,.51,1,.47,1.62-.67,2.07s-2.18,1.16-3.33,1.51c-.8,.2-1.65,.2-2.45,0-1.15,.41-2.32,1-1.88,2.64,.04,.16,.01,.34-.08,.48-.95,.6-1.83,1.33-2.59,2.16-.57,1.08-1.66,1.78-2.87,1.85-.86,.06-1.65,1-2.48,1.49h-9.67c-1.3-.74-2.63-1.43-3.89-2.23-1.38-.87-2.71-1.81-4-2.82-.77-.6-1.33-1.45-2.06-2.1-.51-.53-1.13-.94-1.81-1.21-2.16-.61-4.37-1.07-6.57-1.61v-.67Zm9,1.58v-.56c1.07-.2,2.15-.32,3.24-.35,.78,.13,1.54,.37,2.25,.71,1.39,.48,2.8,.95,4.18,1.48,.33,.13,.55,.52,.83,.79,.54,.58,1.12,1.12,1.74,1.61,1.55,1.08,3.13,2.13,4.77,3.07,.6,.22,1.22,.34,1.86,.35-.17-.63-.44-1.22-.82-1.75-1.69-1.59-3.52-3-5.23-4.62-.36-.33-.42-1-.62-1.49,.57,.11,1.28,0,1.67,.36,2.32,1.89,4.53,3.91,6.86,5.8,.4,.32,1.15,.23,1.73,.33-.17-.61-.14-1.43-.53-1.8-1.77-1.67-3.69-3.19-5.5-4.83-.56-.52-1.88-.84-1-2,.13-.17,1.42,.33,2,.78,2.08,1.66,4,3.48,6.12,5.13,.39,.31,1.17,.15,1.77,.21-.21-.52-.29-1.19-.66-1.54-3.11-2.88-6.22-5.74-9.34-8.59-1.25-1.12-1.81-.94-2.83,.27-.71,.91-1.59,1.66-2.59,2.22-1.11,.66-2.53,.41-3.35-.59-.88-1.1-.35-2.16,.22-3.23,.43-.94,.81-1.9,1.13-2.88l-5.39-.37-3.9,10.7,1.39,.79Zm27.85-1.09l-4.45-10.44c-1.96,.49-4.04,.11-5.7-1.05-1.88-1.14-3.82-.67-5.85,.22-2.62,1.17-2.75,3.81-4,5.77,0,0,.93,.91,1.06,.82,.9-.49,1.7-1.14,2.37-1.92,1.25-1.7,3-2.1,4.66-.76,1.12,.9,2.17,1.89,3.23,2.86l6.62,6,2.06-1.5ZM6.17,12.32L1.94,24.14l3.74,1.08c1.22-2.73,2.3-5.53,3.23-8.38,1.09-3.81,1.53-2.92-2.38-4.63-.04-.02-.1,.03-.36,.11Zm36.7,11.14l-5.73-11.32c-.66,.35-1.29,.75-1.89,1.2-.36,.3-.87,.89-.79,1.2,.97,3.79,2.63,7.37,4.9,10.56l3.51-1.64Zm-25.6,4.42c-.79,1.31-1.4,2.22-1.88,3.2-.06,.13,.5,.57,.77,.86,.71-.84,1.46-1.65,2.09-2.56,.09-.13-.44-.69-.98-1.5Zm-4,2.83c.69-1,1.23-1.75,1.64-2.53,.06-.13-.48-.56-.74-.85-.6,.63-1.16,1.3-1.68,2-.09,.19,.37,.7,.78,1.38Zm8,2.69l2.76,.34,.11-.44-2-1.62-.87,1.72Zm-3-.37l.66,.32c.23-.9,2-1.14,.91-3.07l-1.57,2.75Z"/><path d="M19.67,.03c.41,2.34,.85,4.68,1.2,7,.05,.37-.36,.8-.56,1.21-.32-.29-.88-.54-.94-.87-.4-2.45-.7-4.91-1-7.37l1.3,.03Z"/><path d="M27,.03c-.27,2.45-.5,4.91-.84,7.35-.05,.34-.62,.6-.95,.89-.19-.4-.58-.83-.53-1.21,.27-2.35,.65-4.69,1-7l1.32-.03Z"/><path d="M30,9.19c-.12-.47-.45-1-.29-1.3,.81-1.44,1.72-2.84,2.67-4.2,.27-.25,.64-.37,1-.3,.18,0,.48,.61,.4,.75-1,1.62-2,3.2-3,4.77-.12,.12-.34,.12-.78,.28Z"/><path d="M12.12,3.6c.42,.27,.82,.59,1.18,.94,.74,1,1.48,2.07,2.13,3.16,.17,.29,0,.79,0,1.19-.42-.1-1-.06-1.25-.33-.81-1.03-1.54-2.13-2.18-3.28-.23-.32,0-.88,.12-1.68Z"/></svg>